<svg width="32" height="32" viewBox="0 0 32 32" fill="none" xmlns="http://www.w3.org/2000/svg">
<path d="M15.8697 18.9924C17.4502 18.9924 18.7314 17.7111 18.7314 16.1306C18.7314 14.5501 17.4502 13.2688 15.8697 13.2688C14.2892 13.2688 13.0079 14.5501 13.0079 16.1306C13.0079 17.7111 14.2892 18.9924 15.8697 18.9924Z" fill="white"/>
<path d="M19.4469 9.10571H12.2926C11.2519 9.10571 10.3414 9.43092 9.75602 10.0163C9.17066 10.6016 8.84546 11.5122 8.84546 12.5529V19.7073C8.84546 20.748 9.17066 21.6586 9.82106 22.309C10.4715 22.8943 11.317 23.2195 12.3576 23.2195H19.4469C20.4876 23.2195 21.3981 22.8943 21.9835 22.309C22.6339 21.7236 22.9591 20.813 22.9591 19.7724V12.6179C22.9591 11.5773 22.6339 10.7317 22.0485 10.0813C21.3981 9.43092 20.5526 9.10571 19.4469 9.10571ZM15.8698 20.5529C13.3982 20.5529 11.447 18.5366 11.447 16.1301C11.447 13.6586 13.4633 11.7073 15.8698 11.7073C18.2762 11.7073 20.3575 13.6586 20.3575 16.1301C20.3575 18.6016 18.3413 20.5529 15.8698 20.5529ZM20.4876 12.5529C19.9022 12.5529 19.4469 12.0976 19.4469 11.5122C19.4469 10.9269 19.9022 10.4716 20.4876 10.4716C21.0729 10.4716 21.5282 10.9269 21.5282 11.5122C21.5282 12.0976 21.0729 12.5529 20.4876 12.5529Z" fill="white"/>
<path d="M15.9998 0C7.15437 0 0 7.15447 0 16C0 24.8455 7.15437 32 15.9998 32C24.8452 32 31.9996 24.8455 31.9996 16C32.0646 7.15447 24.8452 0 15.9998 0ZM24.52 19.7724C24.52 21.2683 23.9997 22.5691 23.0891 23.4797C22.1786 24.3902 20.8778 24.8455 19.4469 24.8455H12.3576C10.9267 24.8455 9.62589 24.3902 8.71533 23.4797C7.73973 22.5691 7.28445 21.2683 7.28445 19.7724V12.6179C7.28445 9.62602 9.30069 7.54471 12.3576 7.54471H19.5119C21.0078 7.54471 22.2436 8.06504 23.1542 8.97561C24.0647 9.88618 24.52 11.122 24.52 12.6179V19.7724Z" fill="white"/>
</svg>
